<svg width="32" height="32" viewBox="0 0 32 32" fill="none" xmlns="http://www.w3.org/2000/svg">
<path d="M19.4931 2.58137C17.3222 1.36171 14.6778 1.36171 12.5069 2.58137L4.45808 7.10345C2.51398 8.19571 2.51397 11.0057 4.45808 12.0979L12.5069 16.62C14.6778 17.8397 17.3222 17.8397 19.4931 16.62L27.5419 12.0979C29.486 11.0057 29.486 8.19572 27.5419 7.10346L19.4931 2.58137Z" fill="white"/>
<path opacity="0.3" d="M3.96689 20.4492C2.53073 21.7025 2.69446 24.107 4.45808 25.0978L12.5069 29.6199C14.6778 30.8396 17.3222 30.8396 19.4931 29.6199L27.5419 25.0978C29.3055 24.107 29.4693 21.7025 28.0331 20.4492L20.4727 24.6969C17.6935 26.2583 14.3065 26.2583 11.5273 24.6969L3.96689 20.4492Z" fill="white"/>
<path opacity="0.3" d="M3.96689 14C2.53073 15.2533 2.69446 17.6577 4.45808 18.6486L12.5069 23.1707C14.6778 24.3903 17.3222 24.3903 19.4931 23.1707L27.5419 18.6486C29.3055 17.6577 29.4693 15.2533 28.0331 14L20.4727 18.2477C17.6935 19.8091 14.3065 19.8091 11.5273 18.2477L3.96689 14Z" fill="white"/>
</svg>
