<svg width="32" height="32" viewBox="0 0 32 32" fill="none" xmlns="http://www.w3.org/2000/svg">
<rect opacity="0.3" x="2.66638" y="2.66638" width="26.6667" height="26.6667" rx="13.3333" fill="white"/>
<path fill-rule="evenodd" clip-rule="evenodd" d="M2.687 15.2496H9.89333C9.70067 12.1074 8.30531 9.28136 6.14661 7.20706L7.18591 6.12546C9.62419 8.46842 11.2011 11.6783 11.3959 15.2496H15.2496V2.687C15.4978 2.67323 15.7479 2.66626 15.9996 2.66626C16.2513 2.66626 16.5013 2.67323 16.7496 2.687V15.2496H20.6026C20.7929 11.6219 22.3568 8.35696 24.7821 5.96718C24.9725 6.13396 25.1581 6.30607 25.3386 6.48328L25.7008 6.85274C25.7522 6.90719 25.8031 6.96207 25.8535 7.01738C23.6922 9.13827 22.2939 12.0309 22.1049 15.2496H29.3122C29.326 15.4978 29.3329 15.7479 29.3329 15.9996C29.3329 16.2513 29.326 16.5013 29.3122 16.7496H22.1049C22.2941 19.9682 23.6924 22.8608 25.8537 24.9816C25.8068 25.033 25.7595 25.0841 25.7118 25.1348L25.3272 25.5271C25.1503 25.7003 24.9687 25.8686 24.7824 26.0318C22.357 23.6421 20.7931 20.3773 20.6026 16.7496H16.7496V29.3122C16.5013 29.326 16.2513 29.3329 15.9996 29.3329C15.7479 29.3329 15.4978 29.326 15.2496 29.3122V16.7496H11.3959C11.2011 20.3209 9.62419 23.5308 7.18591 25.8737L6.14661 24.7921C8.30531 22.7178 9.70067 19.8918 9.89333 16.7496H2.687C2.67323 16.5013 2.66626 16.2513 2.66626 15.9996C2.66626 15.7479 2.67323 15.4978 2.687 15.2496Z" fill="white"/>
</svg>
