<svg width="32" height="32" viewBox="0 0 32 32" fill="none" xmlns="http://www.w3.org/2000/svg">
<path opacity="0.3" fill-rule="evenodd" clip-rule="evenodd" d="M2.86281 3.01937C2.32125 2.91106 1.79443 3.26227 1.68612 3.80383C1.5778 4.34539 1.92902 4.87222 2.47058 4.98053L3.86973 5.26036C4.58806 5.40403 5.12837 5.9999 5.20126 6.72882L5.40598 8.77595L6.72528 19.7701C6.94642 21.613 8.50976 22.9999 10.3658 22.9999H22.3564C24.9567 22.9999 27.2232 21.2303 27.8539 18.7077L29.3509 12.7196C29.9926 10.1529 28.0513 7.66662 25.4057 7.66662H7.30502L7.19134 6.52981C7.03097 4.92618 5.84229 3.61526 4.26196 3.2992L2.86281 3.01937Z" fill="white"/>
<path d="M17.3332 17.9998H11.9998" stroke="white" stroke-width="1.5" stroke-linecap="round" stroke-linejoin="round"/>
<circle cx="11.3334" cy="26.6665" r="2" fill="white"/>
<circle cx="23.3334" cy="26.6665" r="2" fill="white"/>
</svg>
