<svg width="30" height="24" viewBox="0 0 30 24" fill="none" xmlns="http://www.w3.org/2000/svg">
<path opacity="0.3" fill-rule="evenodd" clip-rule="evenodd" d="M7.00002 0.333252C3.50222 0.333252 0.666687 3.16878 0.666687 6.66659V8.29732C0.666687 9.05142 1.1924 9.59716 1.76107 9.79323C2.67739 10.1092 3.33335 10.9792 3.33335 11.9999C3.33335 13.0206 2.67739 13.8907 1.76107 14.2066C1.19239 14.4027 0.666687 14.9484 0.666687 15.7025V17.3333C0.666687 20.8311 3.50222 23.6666 7.00002 23.6666H23C26.4978 23.6666 29.3334 20.8311 29.3334 17.3333V15.7025C29.3334 14.9484 28.8076 14.4027 28.239 14.2066C27.3227 13.8907 26.6667 13.0206 26.6667 11.9999C26.6667 10.9792 27.3227 10.1092 28.239 9.79323C28.8076 9.59716 29.3334 9.05141 29.3334 8.29732V6.66659C29.3334 3.16878 26.4978 0.333252 23 0.333252H7.00002Z" fill="white"/>
<path d="M14.601 7.19481C14.8011 6.92993 15.199 6.92993 15.399 7.19481L16.8832 9.16002C16.943 9.23924 17.0251 9.29885 17.1189 9.33127L19.4466 10.1355C19.7603 10.2439 19.8833 10.6224 19.6932 10.8945L18.2828 12.9133C18.2259 12.9947 18.1946 13.0911 18.1927 13.1904L18.1471 15.6527C18.141 15.9845 17.8191 16.2184 17.5015 16.1217L15.1457 15.4042C15.0507 15.3753 14.9493 15.3753 14.8543 15.4042L12.4985 16.1217C12.1809 16.2184 11.8591 15.9845 11.8529 15.6527L11.8073 13.1904C11.8055 13.0911 11.7741 12.9947 11.7173 12.9133L10.3069 10.8945C10.1168 10.6224 10.2397 10.2439 10.5535 10.1355L12.8811 9.33127C12.975 9.29885 13.057 9.23924 13.1168 9.16002L14.601 7.19481Z" fill="white"/>
</svg>
