<svg width="42" height="42" viewBox="0 0 42 42" fill="none" xmlns="http://www.w3.org/2000/svg">
<path fill-rule="evenodd" clip-rule="evenodd" d="M10.5 5.6875C5.90913 5.6875 2.1875 9.40913 2.1875 14V16.1403C2.1875 17.1301 2.87749 17.8464 3.62387 18.1037C4.82654 18.5184 5.6875 19.6603 5.6875 21C5.6875 22.3397 4.82654 23.4816 3.62387 23.8963C2.87749 24.1536 2.1875 24.8699 2.1875 25.8597V28C2.1875 32.5909 5.90913 36.3125 10.5 36.3125H31.5C36.0909 36.3125 39.8125 32.5909 39.8125 28V25.8597C39.8125 24.8699 39.1225 24.1536 38.3761 23.8963C37.1735 23.4816 36.3125 22.3397 36.3125 21C36.3125 19.6603 37.1735 18.5184 38.3761 18.1037C39.1225 17.8464 39.8125 17.1301 39.8125 16.1403V14C39.8125 9.40913 36.0909 5.6875 31.5 5.6875H10.5Z" fill="white"/>
<path d="M20.601 14.5283C20.8011 14.2634 21.1989 14.2634 21.399 14.5283L23.5004 17.3107C23.5602 17.3899 23.6422 17.4495 23.7361 17.482L27.0316 18.6207C27.3454 18.7291 27.4683 19.1075 27.2782 19.3796L25.2814 22.2379C25.2245 22.3193 25.1932 22.4158 25.1913 22.515L25.1268 26.0012C25.1206 26.3331 24.7987 26.5669 24.4812 26.4702L21.1457 25.4544C21.0507 25.4254 20.9493 25.4254 20.8543 25.4544L17.5188 26.4702C17.2013 26.5669 16.8794 26.3331 16.8732 26.0012L16.8087 22.515C16.8068 22.4158 16.7755 22.3193 16.7186 22.2379L14.7218 19.3796C14.5317 19.1075 14.6546 18.7291 14.9684 18.6207L18.2639 17.482C18.3578 17.4495 18.4398 17.3899 18.4996 17.3107L20.601 14.5283Z" fill="#FF8A00"/>
</svg>
