<svg width="113" height="81" viewBox="0 0 113 81" fill="none" xmlns="http://www.w3.org/2000/svg">
<g filter="url(#filter0_d_0_3444)">
<g filter="url(#filter1_ii_0_3444)">
<rect x="6" y="69" width="57" height="89" rx="28.5" transform="rotate(-90 6 69)" fill="url(#paint0_linear_0_3444)"/>
</g>
<path d="M36.5 67C21.8645 67 10 55.1355 10 40.5C10 25.8645 21.8645 14 36.5 14L40 14C43.3137 14 46 16.6863 46 20L46 61C46 64.3137 43.3137 67 40 67L36.5 67Z" fill="url(#paint1_linear_0_3444)" fill-opacity="0.5"/>
<path d="M36.5 67C21.8645 67 10 55.1355 10 40.5C10 25.8645 21.8645 14 36.5 14L40 14C43.3137 14 46 16.6863 46 20L46 61C46 64.3137 43.3137 67 40 67L36.5 67Z" fill="url(#paint2_linear_0_3444)" fill-opacity="0.08"/>
<path d="M36.5 67C21.8645 67 10 55.1355 10 40.5C10 25.8645 21.8645 14 36.5 14L40 14C43.3137 14 46 16.6863 46 20L46 61C46 64.3137 43.3137 67 40 67L36.5 67Z" fill="url(#paint3_linear_0_3444)" fill-opacity="0.08"/>
<path d="M36.5 67C21.8645 67 10 55.1355 10 40.5C10 25.8645 21.8645 14 36.5 14L40 14C43.3137 14 46 16.6863 46 20L46 61C46 64.3137 43.3137 67 40 67L36.5 67Z" fill="url(#paint4_linear_0_3444)" fill-opacity="0.08"/>
<path d="M64.5 14C79.1355 14 91 25.8645 91 40.5C91 55.1355 79.1355 67 64.5 67L61 67C57.6863 67 55 64.3137 55 61L55 20C55 16.6863 57.6863 14 61 14L64.5 14Z" fill="url(#paint5_linear_0_3444)" fill-opacity="0.5"/>
<path d="M64.5 14C79.1355 14 91 25.8645 91 40.5C91 55.1355 79.1355 67 64.5 67L61 67C57.6863 67 55 64.3137 55 61L55 20C55 16.6863 57.6863 14 61 14L64.5 14Z" fill="url(#paint6_linear_0_3444)" fill-opacity="0.1"/>
<path d="M64.5 14C79.1355 14 91 25.8645 91 40.5C91 55.1355 79.1355 67 64.5 67L61 67C57.6863 67 55 64.3137 55 61L55 20C55 16.6863 57.6863 14 61 14L64.5 14Z" fill="url(#paint7_linear_0_3444)" fill-opacity="0.1"/>
<path d="M64.5 14C79.1355 14 91 25.8645 91 40.5C91 55.1355 79.1355 67 64.5 67L61 67C57.6863 67 55 64.3137 55 61L55 20C55 16.6863 57.6863 14 61 14L64.5 14Z" fill="url(#paint8_linear_0_3444)" fill-opacity="0.1"/>
</g>
<defs>
<filter id="filter0_d_0_3444" x="0" y="0" width="113" height="81" filterUnits="userSpaceOnUse" color-interpolation-filters="sRGB">
<feFlood flood-opacity="0" result="BackgroundImageFix"/>
<feColorMatrix in="SourceAlpha" type="matrix" values="0 0 0 0 0 0 0 0 0 0 0 0 0 0 0 0 0 0 127 0" result="hardAlpha"/>
<feOffset dx="6"/>
<feGaussianBlur stdDeviation="6"/>
<feComposite in2="hardAlpha" operator="out"/>
<feColorMatrix type="matrix" values="0 0 0 0 0 0 0 0 0 0 0 0 0 0 0 0 0 0 0.5 0"/>
<feBlend mode="normal" in2="BackgroundImageFix" result="effect1_dropShadow_0_3444"/>
<feBlend mode="normal" in="SourceGraphic" in2="effect1_dropShadow_0_3444" result="shape"/>
</filter>
<filter id="filter1_ii_0_3444" x="5" y="11" width="91" height="59" filterUnits="userSpaceOnUse" color-interpolation-filters="sRGB">
<feFlood flood-opacity="0" result="BackgroundImageFix"/>
<feBlend mode="normal" in="SourceGraphic" in2="BackgroundImageFix" result="shape"/>
<feColorMatrix in="SourceAlpha" type="matrix" values="0 0 0 0 0 0 0 0 0 0 0 0 0 0 0 0 0 0 127 0" result="hardAlpha"/>
<feOffset dx="1" dy="1"/>
<feGaussianBlur stdDeviation="2"/>
<feComposite in2="hardAlpha" operator="arithmetic" k2="-1" k3="1"/>
<feColorMatrix type="matrix" values="0 0 0 0 0.511464 0 0 0 0 0.233194 0 0 0 0 0.9125 0 0 0 1 0"/>
<feBlend mode="normal" in2="shape" result="effect1_innerShadow_0_3444"/>
<feColorMatrix in="SourceAlpha" type="matrix" values="0 0 0 0 0 0 0 0 0 0 0 0 0 0 0 0 0 0 127 0" result="hardAlpha"/>
<feOffset dx="-1" dy="-1"/>
<feGaussianBlur stdDeviation="2"/>
<feComposite in2="hardAlpha" operator="arithmetic" k2="-1" k3="1"/>
<feColorMatrix type="matrix" values="0 0 0 0 0 0 0 0 0 0 0 0 0 0 0 0 0 0 0.25 0"/>
<feBlend mode="normal" in2="effect1_innerShadow_0_3444" result="effect2_innerShadow_0_3444"/>
</filter>
<linearGradient id="paint0_linear_0_3444" x1="57.5" y1="107" x2="8" y2="150" gradientUnits="userSpaceOnUse">
<stop stop-color="#7723F0"/>
<stop offset="1" stop-color="#360684"/>
</linearGradient>
<linearGradient id="paint1_linear_0_3444" x1="46" y1="40" x2="10" y2="40" gradientUnits="userSpaceOnUse">
<stop stop-color="#330872"/>
<stop offset="1" stop-color="#330872" stop-opacity="0"/>
</linearGradient>
<linearGradient id="paint2_linear_0_3444" x1="70.5" y1="1.50001" x2="41" y2="28" gradientUnits="userSpaceOnUse">
<stop/>
<stop offset="1" stop-opacity="0"/>
</linearGradient>
<linearGradient id="paint3_linear_0_3444" x1="47.5" y1="67" x2="40.5" y2="57.5" gradientUnits="userSpaceOnUse">
<stop/>
<stop offset="1" stop-opacity="0"/>
</linearGradient>
<linearGradient id="paint4_linear_0_3444" x1="51" y1="40" x2="41.5" y2="40" gradientUnits="userSpaceOnUse">
<stop/>
<stop offset="1" stop-opacity="0"/>
</linearGradient>
<linearGradient id="paint5_linear_0_3444" x1="55" y1="41" x2="91" y2="41" gradientUnits="userSpaceOnUse">
<stop stop-color="#330872"/>
<stop offset="1" stop-color="#330872" stop-opacity="0"/>
</linearGradient>
<linearGradient id="paint6_linear_0_3444" x1="30.5" y1="79.5" x2="60" y2="53" gradientUnits="userSpaceOnUse">
<stop/>
<stop offset="1" stop-opacity="0"/>
</linearGradient>
<linearGradient id="paint7_linear_0_3444" x1="53.5" y1="14" x2="60.5" y2="23.5" gradientUnits="userSpaceOnUse">
<stop/>
<stop offset="1" stop-opacity="0"/>
</linearGradient>
<linearGradient id="paint8_linear_0_3444" x1="50" y1="41" x2="59.5" y2="41" gradientUnits="userSpaceOnUse">
<stop/>
<stop offset="1" stop-opacity="0"/>
</linearGradient>
</defs>
</svg>
