<svg width="26" height="28" viewBox="0 0 26 28" fill="none" xmlns="http://www.w3.org/2000/svg">
<path d="M16.2813 1.07341C16.7175 1.18379 17.0014 1.58174 17.1029 2.0201C17.3441 3.06253 18.0004 4.0061 19.0001 4.58329C19.9187 5.11368 20.9603 5.23825 21.9173 5.01263C22.3547 4.9095 22.8366 4.98764 23.129 5.3289C24.1972 6.57556 25.0393 8.02172 25.5916 9.60381C25.7586 10.0822 25.5158 10.5891 25.1247 10.9113C24.2343 11.645 23.6666 12.7562 23.6666 14C23.6666 15.2438 24.2343 16.355 25.1247 17.0886C25.5158 17.4108 25.7586 17.9177 25.5916 18.3961C25.0393 19.978 24.1974 21.424 23.1293 22.6706C22.8369 23.0119 22.355 23.0901 21.9175 22.9869C20.9605 22.7612 19.9188 22.8857 19 23.4162C18.0002 23.9934 17.3438 24.9371 17.1027 25.9797C17.0013 26.4181 16.7173 26.8162 16.2811 26.9266C15.2314 27.1922 14.1322 27.3333 13 27.3333C11.8678 27.3333 10.7686 27.1922 9.71898 26.9266C9.28272 26.8162 8.99874 26.4182 8.89734 25.9797C8.65621 24.9372 7.99986 23.9934 7.00001 23.4162C6.08124 22.8857 5.0395 22.7612 4.08246 22.9869C3.64499 23.0901 3.16306 23.012 2.87062 22.6706C1.80256 21.4241 0.960613 19.978 0.408358 18.3961C0.24134 17.9177 0.484116 17.4108 0.875205 17.0886C1.76563 16.355 2.33333 15.2438 2.33333 14C2.33333 12.7562 1.76563 11.6449 0.875207 10.9113C0.484117 10.5891 0.241341 10.0822 0.40836 9.60379C0.960677 8.02169 1.80274 6.57552 2.87098 5.32886C3.1634 4.98758 3.64528 4.90945 4.0827 5.0126C5.03968 5.23826 6.08132 5.1137 7.00001 4.58329C7.99975 4.0061 8.65606 3.06251 8.89726 2.02007C8.9987 1.58169 9.28267 1.18373 9.71887 1.07335C10.7685 0.807744 11.8678 0.666626 13 0.666626C14.1322 0.666626 15.2315 0.807764 16.2813 1.07341Z" fill="white" fill-opacity="0.3"/>
<circle cx="4" cy="4" r="4" transform="matrix(-1 0 0 1 17.0001 10)" fill="white"/>
</svg>
