<svg width="42" height="42" viewBox="0 0 42 42" fill="none" xmlns="http://www.w3.org/2000/svg">
<path opacity="0.3" fill-rule="evenodd" clip-rule="evenodd" d="M34.625 10.7938C34.8851 8.80478 33.2506 7.17025 31.2616 7.43038C28.1222 7.84098 22.8489 8.96382 19.4667 12.1006C18.3252 13.1594 17.2734 14.4527 16.3463 15.7757L16.2967 15.784L16.3116 15.6793L13.6717 15.3022C13.0226 15.2094 12.3677 15.4277 11.904 15.8914L7.66134 20.1341C6.4474 21.348 7.14034 23.4268 8.83985 23.6696L12.7996 24.2353L12.8341 23.9938C12.9978 24.4743 13.2727 24.9205 13.6446 25.2924L16.763 28.4108C17.1349 28.7827 17.581 29.0576 18.0615 29.2212L17.8201 29.2557L18.3858 33.2155C18.6286 34.915 20.7074 35.608 21.9214 34.394L26.164 30.1514C26.6277 29.6877 26.846 29.0328 26.7532 28.3836L26.3761 25.7437L26.1926 25.77C27.5458 24.8281 28.8728 23.7553 29.9547 22.5886C33.0916 19.2065 34.2144 13.9332 34.625 10.7938Z" fill="white"/>
<path d="M12.9056 29.1495L9.1344 32.9207M10.0772 26.321L8.19159 28.2067M15.7341 31.9779L13.8484 33.8635" stroke="white" stroke-width="1.5" stroke-linecap="round"/>
<path d="M23.2762 15.0074C22.2348 16.0488 22.2348 17.7373 23.2762 18.7787C24.3176 19.8201 26.0061 19.8201 27.0475 18.7787C28.0889 17.7373 28.0889 16.0488 27.0475 15.0074C26.0061 13.966 24.3176 13.966 23.2762 15.0074Z" fill="white"/>
</svg>
