<svg width="38" height="32" viewBox="0 0 38 32" fill="none" xmlns="http://www.w3.org/2000/svg">
<path fill-rule="evenodd" clip-rule="evenodd" d="M0.1875 9C0.1875 4.40913 3.90913 0.6875 8.5 0.6875H29.5C34.0909 0.6875 37.8125 4.40913 37.8125 9V11.1403C37.8125 12.1301 37.1225 12.8464 36.3761 13.1037C35.1735 13.5184 34.3125 14.6603 34.3125 16C34.3125 17.3397 35.1735 18.4816 36.3761 18.8963C37.1225 19.1536 37.8125 19.8699 37.8125 20.8597V23C37.8125 27.5909 34.0909 31.3125 29.5 31.3125H8.5C3.90913 31.3125 0.1875 27.5909 0.1875 23V20.8597C0.1875 19.8699 0.87749 19.1536 1.62387 18.8963C2.82654 18.4816 3.6875 17.3397 3.6875 16C3.6875 14.6603 2.82654 13.5184 1.62387 13.1037C0.87749 12.8464 0.1875 12.1301 0.1875 11.1403V9ZM19.399 9.5283C19.1989 9.2634 18.8011 9.2634 18.601 9.5283L16.4996 12.3107C16.4398 12.3899 16.3578 12.4495 16.2639 12.482L12.9684 13.6207C12.6546 13.7291 12.5317 14.1075 12.7218 14.3796L14.7186 17.2379C14.7755 17.3193 14.8068 17.4158 14.8087 17.515L14.8732 21.0012C14.8794 21.3331 15.2013 21.5669 15.5188 21.4702L18.8543 20.4544C18.9493 20.4254 19.0507 20.4254 19.1457 20.4544L22.4812 21.4702C22.7987 21.5669 23.1206 21.3331 23.1268 21.0012L23.1913 17.515C23.1932 17.4158 23.2245 17.3193 23.2814 17.2379L25.2782 14.3796C25.4683 14.1075 25.3454 13.7291 25.0316 13.6207L21.7361 12.482C21.6422 12.4495 21.5602 12.3899 21.5004 12.3107L19.399 9.5283Z" fill="white"/>
</svg>
